<mxfile host="65bd71144e">
    <diagram id="iRGhLGcuoBOvoQUhen28" name="Page-1">
        <mxGraphModel dx="1188" dy="2032" grid="1" gridSize="10" guides="1" tooltips="1" connect="1" arrows="1" fold="1" page="1" pageScale="1" pageWidth="850" pageHeight="1100" background="#CCCCCC" math="0" shadow="1" adaptiveColors="auto">
            <root>
                <mxCell id="0"/>
                <mxCell id="1" parent="0"/>
                <mxCell id="4" value="" style="edgeStyle=none;html=1;" edge="1" parent="1" source="2" target="3">
                    <mxGeometry relative="1" as="geometry"/>
                </mxCell>
                <mxCell id="2" value="&lt;font style=&quot;color: rgb(255, 255, 255); font-size: 20px;&quot;&gt;&lt;b style=&quot;&quot;&gt;Users&lt;/b&gt;&lt;/font&gt;" style="text;strokeColor=none;align=center;fillColor=none;html=1;verticalAlign=middle;whiteSpace=wrap;rounded=0;" vertex="1" parent="1">
                    <mxGeometry x="70" y="30" width="60" height="30" as="geometry"/>
                </mxCell>
                <mxCell id="3" value="ID - PRIMARY KEY&lt;div style=&quot;padding-top: 10px; padding-right: 0px; padding-bottom: 10px;&quot;&gt;EMAIL&lt;/div&gt;&lt;div&gt;PASSWORD&lt;/div&gt;" style="whiteSpace=wrap;html=1;" vertex="1" parent="1">
                    <mxGeometry x="180" y="-20" width="120" height="130" as="geometry"/>
                </mxCell>
                <mxCell id="7" value="" style="edgeStyle=none;html=1;" edge="1" parent="1" source="5" target="6">
                    <mxGeometry relative="1" as="geometry"/>
                </mxCell>
                <mxCell id="5" value="&lt;font style=&quot;font-size: 20px;&quot;&gt;&lt;b&gt;Posts&lt;/b&gt;&lt;/font&gt;" style="text;html=1;align=center;verticalAlign=middle;resizable=0;points=[];autosize=1;strokeColor=none;fillColor=none;" vertex="1" parent="1">
                    <mxGeometry x="60" y="246" width="80" height="40" as="geometry"/>
                </mxCell>
                <mxCell id="6" value="&lt;div&gt;&lt;br&gt;&lt;/div&gt;&lt;div&gt;&lt;br&gt;&lt;/div&gt;&lt;div&gt;&lt;br&gt;&lt;/div&gt;&lt;div style=&quot;padding-top: 10px; padding-bottom: 10px;&quot;&gt;&lt;span style=&quot;color: rgb(0, 0, 0);&quot;&gt;ID - PRIMARY KEY&lt;/span&gt;&lt;/div&gt;&lt;div&gt;TITLE&lt;/div&gt;&lt;div style=&quot;padding-top: 10px; padding-bottom: 10px;&quot;&gt;DESCRIPTION&lt;/div&gt;&lt;div style=&quot;padding-top: 10px; padding-bottom: 10px;&quot;&gt;IMAGE&lt;/div&gt;&lt;div style=&quot;padding-top: 10px; padding-bottom: 10px;&quot;&gt;CATEGORY&lt;/div&gt;&lt;div style=&quot;padding-top: 10px; padding-bottom: 10px;&quot;&gt;TAGS&lt;/div&gt;&lt;div style=&quot;padding-top: 10px; padding-bottom: 10px;&quot;&gt;&lt;br&gt;&lt;/div&gt;" style="whiteSpace=wrap;html=1;" vertex="1" parent="1">
                    <mxGeometry x="180" y="145" width="120" height="240" as="geometry"/>
                </mxCell>
                <mxCell id="11" value="" style="edgeStyle=none;html=1;" edge="1" parent="1" source="9" target="10">
                    <mxGeometry relative="1" as="geometry"/>
                </mxCell>
                <mxCell id="9" value="&lt;b&gt;&lt;font style=&quot;font-size: 20px;&quot;&gt;USERS_NEWS&lt;/font&gt;&lt;/b&gt;" style="text;html=1;align=center;verticalAlign=middle;resizable=0;points=[];autosize=1;strokeColor=none;fillColor=none;" vertex="1" parent="1">
                    <mxGeometry x="410" y="110" width="160" height="40" as="geometry"/>
                </mxCell>
                <mxCell id="10" value="&lt;div&gt;&lt;br&gt;&lt;/div&gt;&lt;div&gt;&lt;br&gt;&lt;/div&gt;users_id REFERENCE Users(ID)&lt;div style=&quot;padding-top: 20px; padding-bottom: 20px;&quot;&gt;Posts_id REFERENCES Posts(ID)&lt;/div&gt;&lt;div style=&quot;padding-top: 10px; padding-bottom: 10px;&quot;&gt;Primary KEY(user_id, posts_id)&lt;/div&gt;&lt;div style=&quot;padding-top: 10px; padding-bottom: 10px;&quot;&gt;&lt;div style=&quot;padding-top: 10px; padding-bottom: 10px;&quot;&gt;&amp;nbsp; &amp;nbsp; created_at TIMESTAMP DEFAULT CURRENT_TIMESTAMP&lt;/div&gt;&lt;div&gt;&lt;br&gt;&lt;/div&gt;&lt;/div&gt;" style="whiteSpace=wrap;html=1;" vertex="1" parent="1">
                    <mxGeometry x="669" y="15" width="210" height="230" as="geometry"/>
                </mxCell>
            </root>
        </mxGraphModel>
    </diagram>
</mxfile>